<svg width="143" height="22" viewBox="22 0 143 22" fill="none" xmlns="http://www.w3.org/2000/svg">
  <path
    d="M38.0032 18C36.9549 18 36.1411 17.7241 35.5618 17.1724C34.9825 16.6207 34.6928 15.8483 34.6928 14.8551V6.5792C34.6928 5.61367 34.9687 4.86194 35.5204 4.324C36.0859 3.78607 36.8652 3.5171 37.8584 3.5171H44.2929C44.7067 3.5171 45.0239 3.61365 45.2446 3.80676C45.4653 3.98607 45.5757 4.24814 45.5757 4.59297C45.5757 4.92401 45.4584 5.18608 45.2239 5.37919C45.0033 5.5585 44.6929 5.64816 44.2929 5.64816H38.3342C38.0584 5.64816 37.8377 5.73781 37.6722 5.91712C37.5204 6.09643 37.4446 6.34471 37.4446 6.66196V9.53785H42.7205C43.1343 9.53785 43.4515 9.6344 43.6722 9.82751C43.8929 10.0068 44.0032 10.2689 44.0032 10.6137C44.0032 10.9448 43.886 11.2068 43.6515 11.3999C43.4308 11.5792 43.1205 11.6689 42.7205 11.6689H37.4446V14.8551C37.4446 15.1724 37.5204 15.4207 37.6722 15.6C37.8377 15.7793 38.0584 15.8689 38.3342 15.8689H44.7481C45.1619 15.8689 45.4791 15.9655 45.6998 16.1586C45.9205 16.3379 46.0309 16.6 46.0309 16.9448C46.0309 17.2759 45.9136 17.5379 45.6791 17.731C45.4584 17.9103 45.1481 18 44.7481 18H38.0032ZM60.0586 16.2414C60.2103 16.4345 60.2862 16.6552 60.2862 16.9034C60.2862 17.1241 60.231 17.3379 60.1206 17.5448C60.0103 17.7379 59.8655 17.8897 59.6862 18C59.4655 18.1241 59.2517 18.1862 59.0448 18.1862C58.6999 18.1862 58.3482 17.9793 57.9896 17.5655L53.8516 12.5999L49.7136 17.5655C49.3688 17.9793 49.0171 18.1862 48.6585 18.1862C48.4654 18.1862 48.2516 18.1241 48.0171 18C47.8378 17.8897 47.6929 17.7379 47.5826 17.5448C47.4722 17.3379 47.4171 17.1241 47.4171 16.9034C47.4171 16.6552 47.4929 16.4345 47.6447 16.2414L52.2378 10.6758L47.8929 5.46195C47.6722 5.19987 47.5619 4.90332 47.5619 4.57228C47.5619 4.36538 47.6102 4.17228 47.7067 3.99297C47.8033 3.79986 47.9343 3.65503 48.0998 3.55848C48.3619 3.40675 48.6033 3.33089 48.824 3.33089C49.1964 3.33089 49.5481 3.53089 49.8792 3.9309L53.8516 8.73094L57.8241 3.9309C58.1551 3.53089 58.5068 3.33089 58.8793 3.33089C59.1275 3.33089 59.3689 3.40675 59.6034 3.55848C59.7689 3.65503 59.9 3.79986 59.9965 3.99297C60.0931 4.17228 60.1413 4.36538 60.1413 4.57228C60.1413 4.90332 60.031 5.19987 59.8103 5.46195L55.4654 10.6758L60.0586 16.2414ZM69.3996 18.2069C67.7858 18.2069 66.3926 17.8966 65.2202 17.2759C64.0616 16.6414 63.1788 15.7655 62.5719 14.6482C61.965 13.5172 61.6616 12.2206 61.6616 10.7585C61.6616 9.29647 61.965 8.0068 62.5719 6.88955C63.1788 5.7585 64.0616 4.88263 65.2202 4.26193C66.3926 3.62744 67.7858 3.3102 69.3996 3.3102C71.0134 3.3102 72.3996 3.62744 73.5582 4.26193C74.7307 4.88263 75.6203 5.7585 76.2272 6.88955C76.8341 8.0068 77.1376 9.29647 77.1376 10.7585C77.1376 12.2206 76.8341 13.5172 76.2272 14.6482C75.6203 15.7655 74.7307 16.6414 73.5582 17.2759C72.3996 17.8966 71.0134 18.2069 69.3996 18.2069ZM69.3996 16.0345C70.972 16.0345 72.1927 15.5655 73.0617 14.6276C73.9306 13.6758 74.3651 12.3862 74.3651 10.7585C74.3651 9.11715 73.91 7.82749 72.9996 6.88955C72.103 5.95161 70.8341 5.48264 69.1927 5.48264C67.6892 5.48264 66.5168 5.9654 65.6754 6.93093C64.8478 7.88266 64.434 9.15853 64.434 10.7585C64.434 12.3862 64.8685 13.6758 65.7375 14.6276C66.6064 15.5655 67.8271 16.0345 69.3996 16.0345ZM86.2379 18.2069C84.8861 18.2069 83.6172 17.9862 82.4309 17.5448C81.2447 17.0896 80.2171 16.4414 79.3482 15.6C79.1413 15.3931 79.0378 15.1586 79.0378 14.8965C79.0378 14.5931 79.1757 14.3034 79.4516 14.0275C79.6723 13.8069 79.9137 13.6965 80.1757 13.6965C80.4516 13.6965 80.7826 13.8551 81.1689 14.1724C81.8171 14.7655 82.5827 15.2276 83.4654 15.5586C84.362 15.8758 85.2861 16.0345 86.2379 16.0345C87.1482 16.0345 87.8586 15.8827 88.3689 15.5793C88.8793 15.262 89.1345 14.8207 89.1345 14.2551C89.1345 13.662 88.8586 13.1862 88.3069 12.8275C87.7551 12.4551 86.8172 12.1241 85.493 11.8344C83.4103 11.3792 81.893 10.7792 80.9413 10.0344C80.0033 9.28957 79.5344 8.33094 79.5344 7.15851C79.5344 6.41368 79.7826 5.7516 80.2792 5.17229C80.7758 4.57918 81.4654 4.124 82.3482 3.80676C83.2447 3.47572 84.2654 3.3102 85.4103 3.3102C86.6931 3.3102 87.831 3.524 88.8241 3.95159C89.831 4.36538 90.5965 4.9516 91.1207 5.71022C91.3 5.99988 91.3896 6.24816 91.3896 6.45506C91.3759 6.79989 91.2034 7.09644 90.8724 7.34472C90.6931 7.46886 90.4862 7.53093 90.2517 7.53093C89.8241 7.53093 89.4724 7.36541 89.1965 7.03437C88.7965 6.55161 88.2586 6.1723 87.5827 5.89643C86.9206 5.62057 86.1965 5.48264 85.4103 5.48264C84.431 5.48264 83.6654 5.63436 83.1137 5.93781C82.5758 6.22747 82.3068 6.63437 82.3068 7.15851C82.3068 7.68266 82.5689 8.11714 83.093 8.46198C83.631 8.79301 84.5551 9.11026 85.8655 9.41371C87.3137 9.75854 88.4793 10.1516 89.362 10.593C90.2448 11.0206 90.8862 11.531 91.2862 12.1241C91.7 12.7172 91.9069 13.4275 91.9069 14.2551C91.9069 15.0414 91.6724 15.7379 91.2034 16.3448C90.7345 16.9379 90.0724 17.4 89.2172 17.731C88.362 18.0483 87.3689 18.2069 86.2379 18.2069ZM98.4628 18.2069C97.8697 18.2069 97.3939 18.0138 97.0352 17.6276C96.6766 17.2414 96.4214 16.6414 96.2697 15.8276L94.0145 4.22055C93.9869 4.08262 93.9731 3.98607 93.9731 3.9309C93.9731 3.5171 94.2076 3.3102 94.6766 3.3102C94.9662 3.3102 95.1731 3.37227 95.2973 3.49641C95.4214 3.62055 95.5042 3.80676 95.5456 4.05504L97.7387 15.8689C97.8077 16.2552 97.8973 16.5241 98.0077 16.6758C98.118 16.8138 98.2766 16.8827 98.4835 16.8827C98.7042 16.8827 98.8697 16.8069 98.9801 16.6552C99.0904 16.4896 99.1732 16.2345 99.2284 15.8896L100.863 5.23436C100.959 4.59987 101.159 4.124 101.463 3.80676C101.78 3.47572 102.18 3.3102 102.663 3.3102C103.656 3.3102 104.249 3.95159 104.442 5.23436L106.077 15.8896C106.132 16.2483 106.215 16.5034 106.325 16.6552C106.435 16.8069 106.601 16.8827 106.822 16.8827C107.015 16.8827 107.166 16.8069 107.277 16.6552C107.401 16.5034 107.497 16.2414 107.566 15.8689L109.759 4.05504C109.801 3.79296 109.884 3.60676 110.008 3.49641C110.146 3.37227 110.353 3.3102 110.628 3.3102C111.097 3.3102 111.332 3.5171 111.332 3.9309C111.332 3.98607 111.318 4.08262 111.291 4.22055L109.035 15.8276C108.884 16.6 108.635 17.1931 108.291 17.6069C107.959 18.0069 107.477 18.2069 106.842 18.2069C106.249 18.2069 105.78 18.0138 105.435 17.6276C105.104 17.2414 104.877 16.6483 104.753 15.8483L103.139 5.39988C103.097 5.12401 103.035 4.93091 102.953 4.82056C102.884 4.69642 102.787 4.63435 102.663 4.63435C102.525 4.63435 102.415 4.69642 102.332 4.82056C102.263 4.93091 102.208 5.12401 102.166 5.39988L100.553 15.8483C100.428 16.6483 100.194 17.2414 99.8491 17.6276C99.518 18.0138 99.0559 18.2069 98.4628 18.2069ZM114.327 18.2069C114.093 18.2069 113.907 18.1379 113.769 18C113.631 17.8483 113.562 17.6414 113.562 17.3793V9.28957C113.562 7.41369 114.086 5.95161 115.134 4.90332C116.196 3.84124 117.665 3.3102 119.541 3.3102C121.403 3.3102 122.865 3.84124 123.928 4.90332C124.99 5.9654 125.521 7.42748 125.521 9.28957V17.3793C125.521 17.6414 125.452 17.8483 125.314 18C125.176 18.1379 124.983 18.2069 124.734 18.2069C124.5 18.2069 124.307 18.1379 124.155 18C124.017 17.8483 123.948 17.6414 123.948 17.3793V12.7241H115.114V17.3793C115.114 17.6414 115.045 17.8483 114.907 18C114.769 18.1379 114.576 18.2069 114.327 18.2069ZM123.948 11.4413V9.2275C123.948 7.75162 123.569 6.62058 122.81 5.83436C122.052 5.03436 120.962 4.63435 119.541 4.63435C118.107 4.63435 117.01 5.02746 116.252 5.81367C115.493 6.59989 115.114 7.73783 115.114 9.2275V11.4413H123.948ZM129.484 18.2069C129.249 18.2069 129.063 18.1379 128.925 18C128.787 17.8483 128.718 17.6414 128.718 17.3793V5.99988C128.718 5.22746 128.946 4.62056 129.401 4.17917C129.87 3.73779 130.518 3.5171 131.346 3.5171H134.863C138.794 3.5171 140.76 5.16539 140.76 8.46198C140.76 9.97923 140.256 11.1517 139.249 11.9793C138.256 12.7931 136.822 13.2 134.946 13.2H130.27V17.3793C130.27 17.6414 130.201 17.8483 130.063 18C129.925 18.1379 129.732 18.2069 129.484 18.2069ZM134.946 11.8965C136.284 11.8965 137.318 11.6344 138.049 11.1103C138.794 10.5861 139.166 9.70337 139.166 8.46198C139.166 7.16541 138.808 6.23437 138.091 5.66884C137.373 5.08953 136.332 4.79987 134.966 4.79987H131.366C131.035 4.79987 130.766 4.91022 130.559 5.13091C130.366 5.3516 130.27 5.64126 130.27 5.99988V11.8965H134.946Z"
    fill="white" />
</svg>